Coordinates
version=1
nRows=20
nColumns=50
inDegrees=no

Units are S.I. units (second, meters, Newtons, ...)
If the header above contains a line with 'inDegrees', this indicates whether rotational values are in degrees (yes) or radians (no).

endheader
time	pelvis_tilt	pelvis_list	pelvis_rotation	pelvis_tx	pelvis_ty	pelvis_tz	hip_flexion_r	hip_adduction_r	hip_rotation_r	knee_angle_r	ankle_angle_r	subtalar_angle_r	mtp_angle_r	hip_flexion_l	hip_adduction_l	hip_rotation_l	knee_angle_l	ankle_angle_l	subtalar_angle_l	mtp_angle_l	lumbar_bending	lumbar_extension	lumbar_twist	thorax_bending	thorax_extension	thorax_twist	head_bending	head_extension	head_twist	scapula_abduction_r	scapula_elevation_r	scapula_upward_rot_r	shoulder_r_x	shoulder_r_y	shoulder_r_z	elbow_flexion_r	pro_sup_r	wrist_flexion_r	wrist_deviation_r	scapula_abduction_l	scapula_elevation_l	scapula_upward_rot_l	shoulder_l_x	shoulder_l_y	shoulder_l_z	elbow_flexion_l	pro_sup_l	wrist_flexion_l	wrist_deviation_l
0.644	-0.189788	-0.0744085	0.310221	0.186609	0.977311	0.205049	0.814192	-0.397375	-0.144625	2.59603	-0.0221292	-0.0133547	0.0421769	0.167441	-0.12999	-0.0225694	0.744517	0.420398	0.349066	-0.0379211	-0.0672082	-0.253413	-0.126306	0.207869	-0.0476377	-0.254142	0	0	0	-1.18981	-0.17064	0.496441	-0.0804643	0.098033	-0.816747	0.645426	-0.145328	0	0.0835765	-0.95917	-0.180026	0.678771	-0.0292941	0.112043	-0.04195	1.37939	-0.264289	0	0.0835765
0.648	-0.189183	-0.0905256	0.295888	0.228062	0.976698	0.202522	0.867764	-0.387365	-0.148138	2.56305	-0.00503751	-0.00318033	0.0616324	0.101389	-0.159397	-0.0334931	0.69287	0.394787	0.349066	-0.051419	-0.0227434	-0.231839	-0.110263	0.185038	-0.0484848	-0.253401	0	0	0	-1.20252	-0.161147	0.493036	-0.0632501	0.149273	-0.869332	0.663079	-0.145376	0	0.0835765	-0.981657	-0.177491	0.675978	-0.052094	0.120336	-0.00178597	1.41376	-0.272864	0	0.0835765
0.652	-0.198649	-0.112887	0.283093	0.26843	0.974684	0.20174	0.93397	-0.372211	-0.161865	2.52804	0.00220433	-0.00463438	0.0542076	0.0529952	-0.194538	-0.047849	0.645722	0.326189	0.349066	-0.0683879	0.0190322	-0.200356	-0.0990425	0.167741	-0.0480658	-0.254333	0	0	0	-1.21814	-0.145229	0.493056	-0.0414316	0.200708	-0.91616	0.679702	-0.175212	0	0.0835765	-1.01486	-0.167256	0.664857	-0.0727005	0.121117	0.045109	1.45281	-0.283118	0	0.0835765
0.656	-0.210834	-0.130998	0.273704	0.308645	0.972694	0.200346	0.99917	-0.365842	-0.174237	2.4905	0.00692879	-0.00519777	0.00304495	0.00573304	-0.217378	-0.047594	0.596949	0.316304	0.349066	-0.0142706	0.0552486	-0.172813	-0.102194	0.143319	-0.0429301	-0.250601	0	0	0	-1.23932	-0.11725	0.471969	-0.0784147	0.231685	-0.914496	0.648262	-0.480145	0	0.0835765	-1.14041	-0.142961	0.561122	-0.036259	-0.00400994	0.158603	1.49832	-0.0621905	0	0.0835765
0.66	-0.226152	-0.150664	0.249723	0.349995	0.970061	0.201672	1.07253	-0.340102	-0.181299	2.45091	0.00691588	-0.0168078	0.0217634	-0.0445973	-0.243395	-0.0739222	0.546857	0.23356	0.349066	-0.0780657	0.0880677	-0.129448	-0.0880541	0.13622	-0.0498186	-0.244172	0	0	0	-1.24075	-0.101042	0.499583	-0.00189473	0.280427	-1.00553	0.720551	-0.215378	0	0.0835765	-1.08555	-0.146115	0.63969	-0.111278	0.114005	0.126896	1.5434	-0.290517	0	0.0835765
0.664	-0.239555	-0.162819	0.239734	0.390522	0.968409	0.199923	1.13162	-0.332945	-0.190458	2.40774	0.0187069	-0.00862322	0.00297865	-0.0941741	-0.257811	-0.0777345	0.482207	0.190683	0.349066	-0.0145656	0.11564	-0.10095	-0.0949519	0.120177	-0.0463281	-0.240282	0	0	0	-1.23616	-0.0852582	0.510258	0.0196229	0.304517	-1.06138	0.746128	-0.232888	0	0.0835765	-1.17285	-0.136407	0.575188	-0.0847203	0.0088371	0.19164	1.60812	0.0464499	0	0.0835765
0.668	-0.260118	-0.174346	0.218318	0.431765	0.965987	0.200508	1.20049	-0.316558	-0.196256	2.3628	0.0240183	-0.0164827	0.00414613	-0.137111	-0.270782	-0.109217	0.425311	0.0937057	0.349066	-0.00561898	0.135784	-0.0570191	-0.0961071	0.112653	-0.0527635	-0.224561	0	0	0	-1.23053	-0.0611065	0.538603	-0.00370177	0.286126	-1.08814	0.722263	-0.542629	0	0.0835765	-1.18277	-0.134054	0.588412	-0.122585	0.0496164	0.20876	1.64621	-0.154721	0	0.0835765
0.672	-0.282263	-0.178908	0.196585	0.473027	0.963494	0.201113	1.2684	-0.304621	-0.19702	2.31647	0.0276851	-0.0261742	0.0308939	-0.178185	-0.272949	-0.141474	0.367412	0.00664304	0.349066	-0.00561898	0.141574	-0.00881512	-0.0985785	0.122313	-0.0642024	-0.221721	0	0	0	-1.24675	-0.0248711	0.540535	0.0389501	0.332141	-1.13477	0.791833	-0.241914	0	0.0835765	-1.18389	-0.139071	0.610331	-0.161761	0.0982052	0.214752	1.68447	-0.339722	0	0.0835765
0.676	-0.302966	-0.176459	0.18089	0.51422	0.961718	0.200621	1.32943	-0.303026	-0.192874	2.26765	0.032324	-0.0306301	0.0209155	-0.218492	-0.263718	-0.138928	0.309679	-0.0787686	0.349066	-0.068137	0.141335	0.0312585	-0.102865	0.126695	-0.0687145	-0.222851	0	0	0	-1.24237	-0.00326598	0.559857	0.0417075	0.330632	-1.17649	0.811521	-0.269247	0	0.0835765	-1.22626	-0.142434	0.593741	-0.170059	0.0752072	0.243418	1.73032	-0.329309	0	0.0835765
0.68	-0.320216	-0.17669	0.162957	0.555593	0.960323	0.200787	1.38229	-0.294115	-0.194102	2.21421	0.034129	-0.0383475	0.0368515	-0.257346	-0.25811	-0.144761	0.257828	-0.189089	0.349066	-0.0709168	0.146501	0.0664782	-0.103306	0.130399	-0.0747003	-0.221549	0	0	0	-1.25545	0.0206515	0.564641	0.0371229	0.349985	-1.2043	0.835681	-0.256534	0	0.0835765	-1.27088	-0.148394	0.577085	-0.177571	0.0518537	0.272707	1.77085	-0.363869	0	0.0835765
0.684	-0.336243	-0.177578	0.147788	0.597257	0.959437	0.200748	1.42669	-0.286357	-0.198935	2.15709	0.03727	-0.0473924	0.0579567	-0.298734	-0.251945	-0.15736	0.198222	-0.299832	0.349066	-0.0432339	0.157132	0.100337	-0.101132	0.129426	-0.0805256	-0.218276	0	0	0	-1.26729	0.0381336	0.572583	0.031743	0.361757	-1.2356	0.860567	-0.225573	0	0.0835765	-1.30937	-0.158986	0.564651	-0.182696	0.0278827	0.294991	1.81643	-0.35849	0	0.0835765
0.688	-0.348542	-0.177715	0.131743	0.638469	0.95897	0.200691	1.46284	-0.277523	-0.205439	2.09642	0.0422128	-0.058763	0.0874459	-0.336519	-0.244559	-0.160364	0.157233	-0.400843	0.349066	-0.0101123	0.169081	0.125727	-0.0953686	0.129757	-0.0855567	-0.213509	0	0	0	-1.28738	0.0529132	0.5765	0.0137869	0.37998	-1.256	0.88083	-0.225519	0	0.0835765	-1.33391	-0.174436	0.562861	-0.192893	0.0189841	0.308892	1.86183	-0.392768	0	0.0835765
0.692	-0.356514	-0.177595	0.117374	0.679042	0.958737	0.200909	1.49055	-0.267592	-0.213582	2.03332	0.0456433	-0.0733102	0.0920483	-0.370277	-0.238129	-0.166497	0.137789	-0.456075	0.330185	0.0143179	0.175363	0.140645	-0.095776	0.136835	-0.0865503	-0.209177	0	0	0	-1.28459	0.0577676	0.599836	0.00784971	0.37266	-1.29694	0.903138	-0.203063	0	0.0835765	-1.35077	-0.19479	0.56567	-0.202904	0.0136238	0.31493	1.91105	-0.386838	0	0.0835765
0.696	-0.362568	-0.171494	0.107515	0.718608	0.958559	0.20079	1.51416	-0.262895	-0.21612	1.96941	0.0531263	-0.0812662	0.128923	-0.395462	-0.226231	-0.155262	0.141545	-0.474325	0.275615	0.0272718	0.165895	0.146808	-0.0957279	0.155058	-0.080729	-0.21835	0	0	0	-1.28279	0.061806	0.608513	-0.0161309	0.36804	-1.32582	0.920441	-0.198201	0	0.0835765	-1.36522	-0.2	0.566993	-0.211405	0.0103071	0.322621	1.956	-0.411821	0	0.0835765
0.7	-0.365463	-0.160505	0.102122	0.757403	0.958614	0.200586	1.53125	-0.262798	-0.215687	1.90388	0.0603883	-0.0861411	0.30838	-0.413129	-0.211604	-0.132262	0.168316	-0.467041	0.222921	0.0617476	0.141988	0.142941	-0.110324	0.171833	-0.070252	-0.21817	0	0	0	-1.30373	0.070385	0.588076	-0.0625445	0.389256	-1.32711	0.936468	-0.17761	0	0.0835765	-1.36594	-0.2	0.573611	-0.220316	0.0161953	0.325006	1.99952	-0.464996	0	0.0835765
0.704	-0.364208	-0.146494	0.0976161	0.795762	0.959083	0.200438	1.53957	-0.262818	-0.214519	1.83521	0.0697589	-0.0887626	0.147634	-0.426158	-0.195197	-0.106575	0.21468	-0.448855	0.176804	0.0289681	0.112548	0.134183	-0.113253	0.197288	-0.0589733	-0.239033	0	0	0	-1.24487	0.0548884	0.609566	-0.0878761	0.323702	-1.39113	0.948175	-0.168289	0	0.0835765	-1.33968	-0.2	0.607738	-0.231372	0.0365273	0.309533	2.05996	-0.389201	0	0.0835765
0.708	-0.361174	-0.130845	0.0906522	0.833531	0.959858	0.200468	1.54072	-0.260272	-0.214406	1.76182	0.0782623	-0.0876521	0.118809	-0.434449	-0.176866	-0.084532	0.274541	-0.4253	0.14519	0.0236337	0.0846138	0.126238	-0.125501	0.208178	-0.0579912	-0.242221	0	0	0	-1.19347	0.0477928	0.60809	-0.130638	0.266353	-1.42743	0.954271	-0.151161	0	0.0835765	-1.28369	-0.2	0.668762	-0.248676	0.0842536	0.279988	2.1221	-0.318478	0	0.0835765
0.712	-0.359768	-0.117736	0.0800566	0.8709	0.960703	0.200962	1.53592	-0.252677	-0.218998	1.68187	0.089013	-0.0798142	0.114384	-0.435995	-0.160701	-0.0724838	0.344045	-0.402397	0.129426	0.0289527	0.0728292	0.120393	-0.111173	0.215461	-0.0557182	-0.256515	0	0	0	-1.14765	0.0338118	0.625325	-0.15105	0.213909	-1.46686	0.950895	-0.14469	0	0.0835765	-1.22504	-0.2	0.72588	-0.254311	0.124654	0.248277	2.18759	-0.212656	0	0.0835765
0.716	-0.354551	-0.110394	0.0676284	0.908272	0.961938	0.201655	1.51802	-0.240351	-0.230851	1.5956	0.10227	-0.0633146	0.114043	-0.438662	-0.150628	-0.0713751	0.417997	-0.38841	0.124299	0.0363235	0.0825923	0.0960641	-0.0959101	0.205009	-0.0420648	-0.247222	0	0	0	-1.16948	0.0299566	0.624497	-0.166438	0.224433	-1.44991	0.94041	-0.133864	0	0.0835765	-1.22238	-0.2	0.728981	-0.244703	0.12133	0.241142	2.23753	-0.191199	0	0.0835765
0.72	-0.346734	-0.108341	0.0547321	0.945968	0.963375	0.202402	1.48969	-0.225472	-0.248903	1.5051	0.113615	-0.0379712	0.170042	-0.442752	-0.146642	-0.078611	0.4934	-0.386877	0.12844	0.0580323	0.100448	0.0724998	-0.0712592	0.197586	-0.0315756	-0.242312	0	0	0	-1.18864	0.0272894	0.615613	-0.190612	0.229562	-1.42876	0.932259	-0.129	0	0.0835765	-1.22964	-0.2	0.717274	-0.236706	0.115768	0.240221	2.26893	-0.244983	0	0.0835765
